<svg width="249" height="86" viewBox="0 0 249 86" fill="none" xmlns="http://www.w3.org/2000/svg">
<path d="M117.281 0.818545C116.766 0.293637 116.084 0.000848122 115.375 0C109.673 0 105.782 5.526 104.617 11.376C102.292 9.873 99.7555 9 97.1411 9C89.0366 9 82.3115 17.751 82.0111 27.294L82 27.96C82 38.604 83.6882 45.552 88.6472 53.556C93.4448 60.447 100.12 61.95 106.614 57.366C106.75 57.2849 106.904 57.2449 107.059 57.2502C107.214 57.2555 107.365 57.3058 107.496 57.396C113.943 61.953 120.618 60.447 125.324 53.694C130.377 45.546 132.062 38.601 132.062 27.96C132.062 18.159 125.215 9 116.921 9L116.184 9.024C114.263 9.15885 112.388 9.71413 110.672 10.656C111.676 8.082 113.448 6 115.375 6L115.7 5.979C116.404 5.88869 117.05 5.51186 117.505 4.9255C117.96 4.33914 118.19 3.58751 118.148 2.82418C118.107 2.06086 117.797 1.34345 117.281 0.818545Z" fill="#835A68"/>
<path d="M2.92969 15H8.57812V45.5859L8.03906 51H2.92969V15ZM25.125 38.0859V38.5781C25.125 40.4531 24.9141 42.1797 24.4922 43.7578C24.0859 45.3203 23.4609 46.6797 22.6172 47.8359C21.7891 48.9922 20.7578 49.8906 19.5234 50.5312C18.3047 51.1562 16.8906 51.4688 15.2812 51.4688C13.7031 51.4688 12.3281 51.1719 11.1562 50.5781C9.98438 49.9844 9 49.1406 8.20312 48.0469C7.42188 46.9531 6.78906 45.6484 6.30469 44.1328C5.82031 42.6172 5.47656 40.9453 5.27344 39.1172V37.5469C5.47656 35.7031 5.82031 34.0312 6.30469 32.5312C6.78906 31.0156 7.42188 29.7109 8.20312 28.6172C9 27.5078 9.97656 26.6562 11.1328 26.0625C12.3047 25.4688 13.6719 25.1719 15.2344 25.1719C16.8594 25.1719 18.2891 25.4844 19.5234 26.1094C20.7734 26.7344 21.8125 27.625 22.6406 28.7812C23.4688 29.9219 24.0859 31.2812 24.4922 32.8594C24.9141 34.4375 25.125 36.1797 25.125 38.0859ZM19.4766 38.5781V38.0859C19.4766 36.9453 19.3828 35.875 19.1953 34.875C19.0078 33.8594 18.6953 32.9688 18.2578 32.2031C17.8359 31.4375 17.2578 30.8359 16.5234 30.3984C15.8047 29.9453 14.9062 29.7188 13.8281 29.7188C12.8281 29.7188 11.9688 29.8906 11.25 30.2344C10.5312 30.5781 9.92969 31.0469 9.44531 31.6406C8.96094 32.2344 8.57812 32.9219 8.29688 33.7031C8.03125 34.4844 7.85156 35.3281 7.75781 36.2344V40.4766C7.89844 41.6484 8.19531 42.7266 8.64844 43.7109C9.11719 44.6797 9.77344 45.4609 10.6172 46.0547C11.4609 46.6328 12.5469 46.9219 13.875 46.9219C14.9219 46.9219 15.8047 46.7109 16.5234 46.2891C17.2422 45.8672 17.8125 45.2812 18.2344 44.5312C18.6719 43.7656 18.9844 42.875 19.1719 41.8594C19.375 40.8438 19.4766 39.75 19.4766 38.5781ZM35.9531 25.6406V51H30.2812V25.6406H35.9531ZM29.9062 18.9844C29.9062 18.125 30.1875 17.4141 30.75 16.8516C31.3281 16.2734 32.125 15.9844 33.1406 15.9844C34.1406 15.9844 34.9297 16.2734 35.5078 16.8516C36.0859 17.4141 36.375 18.125 36.375 18.9844C36.375 19.8281 36.0859 20.5312 35.5078 21.0938C34.9297 21.6562 34.1406 21.9375 33.1406 21.9375C32.125 21.9375 31.3281 21.6562 30.75 21.0938C30.1875 20.5312 29.9062 19.8281 29.9062 18.9844ZM53.7656 25.6406V29.7656H39.4688V25.6406H53.7656ZM43.5938 19.4297H49.2422V43.9922C49.2422 44.7734 49.3516 45.375 49.5703 45.7969C49.8047 46.2031 50.125 46.4766 50.5312 46.6172C50.9375 46.7578 51.4141 46.8281 51.9609 46.8281C52.3516 46.8281 52.7266 46.8047 53.0859 46.7578C53.4453 46.7109 53.7344 46.6641 53.9531 46.6172L53.9766 50.9297C53.5078 51.0703 52.9609 51.1953 52.3359 51.3047C51.7266 51.4141 51.0234 51.4688 50.2266 51.4688C48.9297 51.4688 47.7812 51.2422 46.7812 50.7891C45.7812 50.3203 45 49.5625 44.4375 48.5156C43.875 47.4688 43.5938 46.0781 43.5938 44.3438V19.4297ZM69.3047 51.4688C67.4297 51.4688 65.7344 51.1641 64.2188 50.5547C62.7188 49.9297 61.4375 49.0625 60.375 47.9531C59.3281 46.8438 58.5234 45.5391 57.9609 44.0391C57.3984 42.5391 57.1172 40.9219 57.1172 39.1875V38.25C57.1172 36.2656 57.4062 34.4688 57.9844 32.8594C58.5625 31.25 59.3672 29.875 60.3984 28.7344C61.4297 27.5781 62.6484 26.6953 64.0547 26.0859C65.4609 25.4766 66.9844 25.1719 68.625 25.1719C70.4375 25.1719 72.0234 25.4766 73.3828 26.0859C74.7422 26.6953 75.8672 27.5547 76.7578 28.6641C77.6641 29.7578 78.3359 31.0625 78.7734 32.5781C79.2266 34.0938 79.4531 35.7656 79.4531 37.5938V40.0078H59.8594V35.9531H73.875V35.5078C73.8438 34.4922 73.6406 33.5391 73.2656 32.6484C72.9062 31.7578 72.3516 31.0391 71.6016 30.4922C70.8516 29.9453 69.8516 29.6719 68.6016 29.6719C67.6641 29.6719 66.8281 29.875 66.0938 30.2812C65.375 30.6719 64.7734 31.2422 64.2891 31.9922C63.8047 32.7422 63.4297 33.6484 63.1641 34.7109C62.9141 35.7578 62.7891 36.9375 62.7891 38.25V39.1875C62.7891 40.2969 62.9375 41.3281 63.2344 42.2812C63.5469 43.2188 64 44.0391 64.5938 44.7422C65.1875 45.4453 65.9062 46 66.75 46.4062C67.5938 46.7969 68.5547 46.9922 69.6328 46.9922C70.9922 46.9922 72.2031 46.7188 73.2656 46.1719C74.3281 45.625 75.25 44.8516 76.0312 43.8516L79.0078 46.7344C78.4609 47.5312 77.75 48.2969 76.875 49.0312C76 49.75 74.9297 50.3359 73.6641 50.7891C72.4141 51.2422 70.9609 51.4688 69.3047 51.4688ZM135.07 15H140.719V45.5859L140.18 51H135.07V15ZM157.266 38.0859V38.5781C157.266 40.4531 157.055 42.1797 156.633 43.7578C156.227 45.3203 155.602 46.6797 154.758 47.8359C153.93 48.9922 152.898 49.8906 151.664 50.5312C150.445 51.1562 149.031 51.4688 147.422 51.4688C145.844 51.4688 144.469 51.1719 143.297 50.5781C142.125 49.9844 141.141 49.1406 140.344 48.0469C139.562 46.9531 138.93 45.6484 138.445 44.1328C137.961 42.6172 137.617 40.9453 137.414 39.1172V37.5469C137.617 35.7031 137.961 34.0312 138.445 32.5312C138.93 31.0156 139.562 29.7109 140.344 28.6172C141.141 27.5078 142.117 26.6562 143.273 26.0625C144.445 25.4688 145.812 25.1719 147.375 25.1719C149 25.1719 150.43 25.4844 151.664 26.1094C152.914 26.7344 153.953 27.625 154.781 28.7812C155.609 29.9219 156.227 31.2812 156.633 32.8594C157.055 34.4375 157.266 36.1797 157.266 38.0859ZM151.617 38.5781V38.0859C151.617 36.9453 151.523 35.875 151.336 34.875C151.148 33.8594 150.836 32.9688 150.398 32.2031C149.977 31.4375 149.398 30.8359 148.664 30.3984C147.945 29.9453 147.047 29.7188 145.969 29.7188C144.969 29.7188 144.109 29.8906 143.391 30.2344C142.672 30.5781 142.07 31.0469 141.586 31.6406C141.102 32.2344 140.719 32.9219 140.438 33.7031C140.172 34.4844 139.992 35.3281 139.898 36.2344V40.4766C140.039 41.6484 140.336 42.7266 140.789 43.7109C141.258 44.6797 141.914 45.4609 142.758 46.0547C143.602 46.6328 144.688 46.9219 146.016 46.9219C147.062 46.9219 147.945 46.7109 148.664 46.2891C149.383 45.8672 149.953 45.2812 150.375 44.5312C150.812 43.7656 151.125 42.875 151.312 41.8594C151.516 40.8438 151.617 39.75 151.617 38.5781ZM169.125 48.2344L176.016 25.6406H182.062L171.891 54.8672C171.656 55.4922 171.352 56.1719 170.977 56.9062C170.602 57.6406 170.109 58.3359 169.5 58.9922C168.906 59.6641 168.164 60.2031 167.273 60.6094C166.383 61.0312 165.305 61.2422 164.039 61.2422C163.539 61.2422 163.055 61.1953 162.586 61.1016C162.133 61.0234 161.703 60.9375 161.297 60.8438L161.273 56.5312C161.43 56.5469 161.617 56.5625 161.836 56.5781C162.07 56.5938 162.258 56.6016 162.398 56.6016C163.336 56.6016 164.117 56.4844 164.742 56.25C165.367 56.0312 165.875 55.6719 166.266 55.1719C166.672 54.6719 167.016 54 167.297 53.1562L169.125 48.2344ZM165.234 25.6406L171.258 44.625L172.266 50.5781L168.352 51.5859L159.141 25.6406H165.234ZM196.922 25.6406V29.7656H182.625V25.6406H196.922ZM186.75 19.4297H192.398V43.9922C192.398 44.7734 192.508 45.375 192.727 45.7969C192.961 46.2031 193.281 46.4766 193.688 46.6172C194.094 46.7578 194.57 46.8281 195.117 46.8281C195.508 46.8281 195.883 46.8047 196.242 46.7578C196.602 46.7109 196.891 46.6641 197.109 46.6172L197.133 50.9297C196.664 51.0703 196.117 51.1953 195.492 51.3047C194.883 51.4141 194.18 51.4688 193.383 51.4688C192.086 51.4688 190.938 51.2422 189.938 50.7891C188.938 50.3203 188.156 49.5625 187.594 48.5156C187.031 47.4688 186.75 46.0781 186.75 44.3438V19.4297ZM212.461 51.4688C210.586 51.4688 208.891 51.1641 207.375 50.5547C205.875 49.9297 204.594 49.0625 203.531 47.9531C202.484 46.8438 201.68 45.5391 201.117 44.0391C200.555 42.5391 200.273 40.9219 200.273 39.1875V38.25C200.273 36.2656 200.562 34.4688 201.141 32.8594C201.719 31.25 202.523 29.875 203.555 28.7344C204.586 27.5781 205.805 26.6953 207.211 26.0859C208.617 25.4766 210.141 25.1719 211.781 25.1719C213.594 25.1719 215.18 25.4766 216.539 26.0859C217.898 26.6953 219.023 27.5547 219.914 28.6641C220.82 29.7578 221.492 31.0625 221.93 32.5781C222.383 34.0938 222.609 35.7656 222.609 37.5938V40.0078H203.016V35.9531H217.031V35.5078C217 34.4922 216.797 33.5391 216.422 32.6484C216.062 31.7578 215.508 31.0391 214.758 30.4922C214.008 29.9453 213.008 29.6719 211.758 29.6719C210.82 29.6719 209.984 29.875 209.25 30.2812C208.531 30.6719 207.93 31.2422 207.445 31.9922C206.961 32.7422 206.586 33.6484 206.32 34.7109C206.07 35.7578 205.945 36.9375 205.945 38.25V39.1875C205.945 40.2969 206.094 41.3281 206.391 42.2812C206.703 43.2188 207.156 44.0391 207.75 44.7422C208.344 45.4453 209.062 46 209.906 46.4062C210.75 46.7969 211.711 46.9922 212.789 46.9922C214.148 46.9922 215.359 46.7188 216.422 46.1719C217.484 45.625 218.406 44.8516 219.188 43.8516L222.164 46.7344C221.617 47.5312 220.906 48.2969 220.031 49.0312C219.156 49.75 218.086 50.3359 216.82 50.7891C215.57 51.2422 214.117 51.4688 212.461 51.4688Z" fill="black"/>
<path d="M118.359 46.5V51H95.4844V47.1328L106.594 35.0156C107.812 33.6406 108.773 32.4531 109.477 31.4531C110.18 30.4531 110.672 29.5547 110.953 28.7578C111.25 27.9453 111.398 27.1562 111.398 26.3906C111.398 25.3125 111.195 24.3672 110.789 23.5547C110.398 22.7266 109.82 22.0781 109.055 21.6094C108.289 21.125 107.359 20.8828 106.266 20.8828C105 20.8828 103.938 21.1562 103.078 21.7031C102.219 22.25 101.57 23.0078 101.133 23.9766C100.695 24.9297 100.477 26.0234 100.477 27.2578H94.8281C94.8281 25.2734 95.2812 23.4609 96.1875 21.8203C97.0938 20.1641 98.4062 18.8516 100.125 17.8828C101.844 16.8984 103.914 16.4062 106.336 16.4062C108.617 16.4062 110.555 16.7891 112.148 17.5547C113.742 18.3203 114.953 19.4062 115.781 20.8125C116.625 22.2188 117.047 23.8828 117.047 25.8047C117.047 26.8672 116.875 27.9219 116.531 28.9688C116.188 30.0156 115.695 31.0625 115.055 32.1094C114.43 33.1406 113.688 34.1797 112.828 35.2266C111.969 36.2578 111.023 37.3047 109.992 38.3672L102.609 46.5H118.359Z" fill="#F2F0EF"/>
<path d="M5.80078 70.4336V71.8203H0.0878906V70.4336H5.80078ZM2.02148 67.8652H3.82812V78.3828C3.82812 78.7409 3.88346 79.0111 3.99414 79.1934C4.10482 79.3757 4.24805 79.4961 4.42383 79.5547C4.59961 79.6133 4.78841 79.6426 4.99023 79.6426C5.13997 79.6426 5.29622 79.6296 5.45898 79.6035C5.62826 79.571 5.75521 79.5449 5.83984 79.5254L5.84961 81C5.70638 81.0456 5.51758 81.0879 5.2832 81.127C5.05534 81.1725 4.77865 81.1953 4.45312 81.1953C4.01042 81.1953 3.60352 81.1074 3.23242 80.9316C2.86133 80.7559 2.5651 80.4629 2.34375 80.0527C2.12891 79.6361 2.02148 79.0762 2.02148 78.373V67.8652ZM9.72656 72.0938V81H7.91992V70.4336H9.67773L9.72656 72.0938ZM13.0273 70.375L13.0176 72.0547C12.8678 72.0221 12.7246 72.0026 12.5879 71.9961C12.4577 71.9831 12.3079 71.9766 12.1387 71.9766C11.722 71.9766 11.3542 72.0417 11.0352 72.1719C10.7161 72.3021 10.446 72.4844 10.2246 72.7188C10.0033 72.9531 9.82747 73.2331 9.69727 73.5586C9.57357 73.8776 9.49219 74.2292 9.45312 74.6133L8.94531 74.9062C8.94531 74.2682 9.00716 73.6693 9.13086 73.1094C9.26107 72.5495 9.45964 72.0547 9.72656 71.625C9.99349 71.1888 10.332 70.8503 10.7422 70.6094C11.1589 70.362 11.6536 70.2383 12.2266 70.2383C12.3568 70.2383 12.5065 70.2546 12.6758 70.2871C12.8451 70.3132 12.9622 70.3424 13.0273 70.375ZM20.5371 79.1934V73.7539C20.5371 73.3372 20.4525 72.9759 20.2832 72.6699C20.1204 72.3574 19.873 72.1165 19.541 71.9473C19.209 71.778 18.7988 71.6934 18.3105 71.6934C17.8548 71.6934 17.4544 71.7715 17.1094 71.9277C16.7708 72.084 16.5039 72.2891 16.3086 72.543C16.1198 72.7969 16.0254 73.0703 16.0254 73.3633H14.2188C14.2188 72.9857 14.3164 72.6113 14.5117 72.2402C14.707 71.8691 14.987 71.5339 15.3516 71.2344C15.7227 70.9284 16.1654 70.6875 16.6797 70.5117C17.2005 70.3294 17.7799 70.2383 18.418 70.2383C19.1862 70.2383 19.8633 70.3685 20.4492 70.6289C21.0417 70.8893 21.5039 71.2832 21.8359 71.8105C22.1745 72.3314 22.3438 72.9857 22.3438 73.7734V78.6953C22.3438 79.0469 22.373 79.4212 22.4316 79.8184C22.4967 80.2155 22.5911 80.5573 22.7148 80.8438V81H20.8301C20.7389 80.7917 20.6673 80.515 20.6152 80.1699C20.5632 79.8184 20.5371 79.4928 20.5371 79.1934ZM20.8496 74.5938L20.8691 75.8633H19.043C18.5286 75.8633 18.0697 75.9056 17.666 75.9902C17.2624 76.0684 16.9238 76.1888 16.6504 76.3516C16.377 76.5143 16.1686 76.7194 16.0254 76.9668C15.8822 77.2077 15.8105 77.4909 15.8105 77.8164C15.8105 78.1484 15.8854 78.4512 16.0352 78.7246C16.1849 78.998 16.4095 79.2161 16.709 79.3789C17.015 79.5352 17.3893 79.6133 17.832 79.6133C18.3854 79.6133 18.8737 79.4961 19.2969 79.2617C19.7201 79.0273 20.0553 78.7409 20.3027 78.4023C20.5566 78.0638 20.6934 77.735 20.7129 77.416L21.4844 78.2852C21.4388 78.5586 21.3151 78.8613 21.1133 79.1934C20.9115 79.5254 20.6413 79.8444 20.3027 80.1504C19.9707 80.4499 19.5736 80.7005 19.1113 80.9023C18.6556 81.0977 18.1413 81.1953 17.5684 81.1953C16.8522 81.1953 16.224 81.0553 15.6836 80.7754C15.1497 80.4954 14.7331 80.1211 14.4336 79.6523C14.1406 79.1771 13.9941 78.6465 13.9941 78.0605C13.9941 77.4941 14.1048 76.9961 14.3262 76.5664C14.5475 76.1302 14.8665 75.7689 15.2832 75.4824C15.6999 75.1895 16.2012 74.9681 16.7871 74.8184C17.373 74.6686 18.0273 74.5938 18.75 74.5938H20.8496ZM29.4141 79.7109C29.8438 79.7109 30.2409 79.623 30.6055 79.4473C30.9701 79.2715 31.2695 79.0306 31.5039 78.7246C31.7383 78.4121 31.8717 78.0573 31.9043 77.6602H33.623C33.5905 78.2852 33.3789 78.8678 32.9883 79.4082C32.6042 79.9421 32.0996 80.375 31.4746 80.707C30.8496 81.0326 30.1628 81.1953 29.4141 81.1953C28.6198 81.1953 27.9264 81.0553 27.334 80.7754C26.748 80.4954 26.2598 80.1113 25.8691 79.623C25.485 79.1348 25.1953 78.5749 25 77.9434C24.8112 77.3053 24.7168 76.6315 24.7168 75.9219V75.5117C24.7168 74.8021 24.8112 74.1315 25 73.5C25.1953 72.862 25.485 72.2988 25.8691 71.8105C26.2598 71.3223 26.748 70.9382 27.334 70.6582C27.9264 70.3783 28.6198 70.2383 29.4141 70.2383C30.2409 70.2383 30.9635 70.4076 31.582 70.7461C32.2005 71.0781 32.6855 71.5339 33.0371 72.1133C33.3952 72.6862 33.5905 73.3372 33.623 74.0664H31.9043C31.8717 73.6302 31.748 73.2363 31.5332 72.8848C31.3249 72.5332 31.0384 72.2533 30.6738 72.0449C30.3158 71.8301 29.8958 71.7227 29.4141 71.7227C28.8607 71.7227 28.3952 71.8333 28.0176 72.0547C27.6465 72.2695 27.3503 72.5625 27.1289 72.9336C26.9141 73.2982 26.7578 73.7051 26.6602 74.1543C26.569 74.597 26.5234 75.0495 26.5234 75.5117V75.9219C26.5234 76.3841 26.569 76.8398 26.6602 77.2891C26.7513 77.7383 26.9043 78.1452 27.1191 78.5098C27.3405 78.8743 27.6367 79.1673 28.0078 79.3887C28.3854 79.6035 28.8542 79.7109 29.4141 79.7109ZM37.4707 66V81H35.6543V66H37.4707ZM43.9258 70.4336L39.3164 75.3652L36.7383 78.041L36.5918 76.1172L38.4375 73.9102L41.7188 70.4336H43.9258ZM42.2754 81L38.5059 75.9609L39.4434 74.3496L44.4043 81H42.2754ZM56.9043 78.1973C56.9043 77.9368 56.8457 77.696 56.7285 77.4746C56.6178 77.2467 56.3867 77.0417 56.0352 76.8594C55.6901 76.6706 55.1693 76.5078 54.4727 76.3711C53.8867 76.2474 53.3561 76.1009 52.8809 75.9316C52.4121 75.7624 52.0117 75.5573 51.6797 75.3164C51.3542 75.0755 51.1035 74.7923 50.9277 74.4668C50.752 74.1413 50.6641 73.7604 50.6641 73.3242C50.6641 72.9076 50.7552 72.5137 50.9375 72.1426C51.1263 71.7715 51.39 71.4427 51.7285 71.1562C52.0736 70.8698 52.487 70.6452 52.9688 70.4824C53.4505 70.3197 53.9876 70.2383 54.5801 70.2383C55.4264 70.2383 56.1491 70.388 56.748 70.6875C57.347 70.987 57.806 71.3874 58.125 71.8887C58.444 72.3835 58.6035 72.9336 58.6035 73.5391H56.7969C56.7969 73.2461 56.709 72.9629 56.5332 72.6895C56.3639 72.4095 56.1133 72.1784 55.7812 71.9961C55.4557 71.8138 55.0553 71.7227 54.5801 71.7227C54.0788 71.7227 53.6719 71.8008 53.3594 71.957C53.0534 72.1068 52.8288 72.2988 52.6855 72.5332C52.5488 72.7676 52.4805 73.015 52.4805 73.2754C52.4805 73.4707 52.513 73.6465 52.5781 73.8027C52.6497 73.9525 52.7734 74.0924 52.9492 74.2227C53.125 74.3464 53.3724 74.4635 53.6914 74.5742C54.0104 74.6849 54.4173 74.7956 54.9121 74.9062C55.778 75.1016 56.4909 75.3359 57.0508 75.6094C57.6107 75.8828 58.0273 76.2181 58.3008 76.6152C58.5742 77.0124 58.7109 77.4941 58.7109 78.0605C58.7109 78.5228 58.6133 78.946 58.418 79.3301C58.2292 79.7142 57.9525 80.0462 57.5879 80.3262C57.2298 80.5996 56.8001 80.8145 56.2988 80.9707C55.804 81.1204 55.2474 81.1953 54.6289 81.1953C53.6979 81.1953 52.9102 81.0293 52.2656 80.6973C51.6211 80.3652 51.1328 79.9355 50.8008 79.4082C50.4688 78.8809 50.3027 78.3242 50.3027 77.7383H52.1191C52.1452 78.2331 52.2884 78.627 52.5488 78.9199C52.8092 79.2064 53.1283 79.4115 53.5059 79.5352C53.8835 79.6523 54.2578 79.7109 54.6289 79.7109C55.1237 79.7109 55.5371 79.6458 55.8691 79.5156C56.2077 79.3854 56.4648 79.2064 56.6406 78.9785C56.8164 78.7507 56.9043 78.4902 56.9043 78.1973ZM62.8809 72.5332V81H61.0645V70.4336H62.7832L62.8809 72.5332ZM62.5098 75.3164L61.6699 75.2871C61.6764 74.5645 61.7708 73.8971 61.9531 73.2852C62.1354 72.6667 62.4056 72.1296 62.7637 71.6738C63.1217 71.2181 63.5677 70.8665 64.1016 70.6191C64.6354 70.3652 65.2539 70.2383 65.957 70.2383C66.4518 70.2383 66.9076 70.3099 67.3242 70.4531C67.7409 70.5898 68.1022 70.8079 68.4082 71.1074C68.7142 71.4069 68.9518 71.791 69.1211 72.2598C69.2904 72.7285 69.375 73.2949 69.375 73.959V81H67.5684V74.0469C67.5684 73.4935 67.474 73.0508 67.2852 72.7188C67.1029 72.3867 66.8424 72.1458 66.5039 71.9961C66.1654 71.8398 65.7682 71.7617 65.3125 71.7617C64.7786 71.7617 64.3327 71.8561 63.9746 72.0449C63.6165 72.2337 63.3301 72.4941 63.1152 72.8262C62.9004 73.1582 62.7441 73.5391 62.6465 73.9688C62.5553 74.3919 62.5098 74.8411 62.5098 75.3164ZM69.3555 74.3203L68.1445 74.6914C68.151 74.112 68.2454 73.5553 68.4277 73.0215C68.6165 72.4876 68.8867 72.0124 69.2383 71.5957C69.5964 71.179 70.0358 70.8503 70.5566 70.6094C71.0775 70.362 71.6732 70.2383 72.3438 70.2383C72.9102 70.2383 73.4115 70.3132 73.8477 70.4629C74.2904 70.6126 74.6615 70.8438 74.9609 71.1562C75.2669 71.4622 75.498 71.8561 75.6543 72.3379C75.8105 72.8197 75.8887 73.3926 75.8887 74.0566V81H74.0723V74.0371C74.0723 73.4447 73.9779 72.9857 73.7891 72.6602C73.6068 72.3281 73.3464 72.097 73.0078 71.9668C72.6758 71.8301 72.2786 71.7617 71.8164 71.7617C71.4193 71.7617 71.0677 71.8301 70.7617 71.9668C70.4557 72.1035 70.1986 72.2923 69.9902 72.5332C69.7819 72.7676 69.6224 73.0378 69.5117 73.3438C69.4076 73.6497 69.3555 73.9753 69.3555 74.3203ZM84.8535 79.1934V73.7539C84.8535 73.3372 84.7689 72.9759 84.5996 72.6699C84.4368 72.3574 84.1895 72.1165 83.8574 71.9473C83.5254 71.778 83.1152 71.6934 82.627 71.6934C82.1712 71.6934 81.7708 71.7715 81.4258 71.9277C81.0872 72.084 80.8203 72.2891 80.625 72.543C80.4362 72.7969 80.3418 73.0703 80.3418 73.3633H78.5352C78.5352 72.9857 78.6328 72.6113 78.8281 72.2402C79.0234 71.8691 79.3034 71.5339 79.668 71.2344C80.0391 70.9284 80.4818 70.6875 80.9961 70.5117C81.5169 70.3294 82.0964 70.2383 82.7344 70.2383C83.5026 70.2383 84.1797 70.3685 84.7656 70.6289C85.3581 70.8893 85.8203 71.2832 86.1523 71.8105C86.4909 72.3314 86.6602 72.9857 86.6602 73.7734V78.6953C86.6602 79.0469 86.6895 79.4212 86.748 79.8184C86.8132 80.2155 86.9076 80.5573 87.0312 80.8438V81H85.1465C85.0553 80.7917 84.9837 80.515 84.9316 80.1699C84.8796 79.8184 84.8535 79.4928 84.8535 79.1934ZM85.166 74.5938L85.1855 75.8633H83.3594C82.8451 75.8633 82.3861 75.9056 81.9824 75.9902C81.5788 76.0684 81.2402 76.1888 80.9668 76.3516C80.6934 76.5143 80.485 76.7194 80.3418 76.9668C80.1986 77.2077 80.127 77.4909 80.127 77.8164C80.127 78.1484 80.2018 78.4512 80.3516 78.7246C80.5013 78.998 80.7259 79.2161 81.0254 79.3789C81.3314 79.5352 81.7057 79.6133 82.1484 79.6133C82.7018 79.6133 83.1901 79.4961 83.6133 79.2617C84.0365 79.0273 84.3717 78.7409 84.6191 78.4023C84.873 78.0638 85.0098 77.735 85.0293 77.416L85.8008 78.2852C85.7552 78.5586 85.6315 78.8613 85.4297 79.1934C85.2279 79.5254 84.9577 79.8444 84.6191 80.1504C84.2871 80.4499 83.89 80.7005 83.4277 80.9023C82.972 81.0977 82.4577 81.1953 81.8848 81.1953C81.1686 81.1953 80.5404 81.0553 80 80.7754C79.4661 80.4954 79.0495 80.1211 78.75 79.6523C78.457 79.1771 78.3105 78.6465 78.3105 78.0605C78.3105 77.4941 78.4212 76.9961 78.6426 76.5664C78.8639 76.1302 79.1829 75.7689 79.5996 75.4824C80.0163 75.1895 80.5176 74.9681 81.1035 74.8184C81.6895 74.6686 82.3438 74.5938 83.0664 74.5938H85.166ZM91.3086 72.0938V81H89.502V70.4336H91.2598L91.3086 72.0938ZM94.6094 70.375L94.5996 72.0547C94.4499 72.0221 94.3066 72.0026 94.1699 71.9961C94.0397 71.9831 93.89 71.9766 93.7207 71.9766C93.304 71.9766 92.9362 72.0417 92.6172 72.1719C92.2982 72.3021 92.028 72.4844 91.8066 72.7188C91.5853 72.9531 91.4095 73.2331 91.2793 73.5586C91.1556 73.8776 91.0742 74.2292 91.0352 74.6133L90.5273 74.9062C90.5273 74.2682 90.5892 73.6693 90.7129 73.1094C90.8431 72.5495 91.0417 72.0547 91.3086 71.625C91.5755 71.1888 91.9141 70.8503 92.3242 70.6094C92.7409 70.362 93.2357 70.2383 93.8086 70.2383C93.9388 70.2383 94.0885 70.2546 94.2578 70.2871C94.4271 70.3132 94.5443 70.3424 94.6094 70.375ZM101.191 70.4336V71.8203H95.4785V70.4336H101.191ZM97.4121 67.8652H99.2188V78.3828C99.2188 78.7409 99.2741 79.0111 99.3848 79.1934C99.4954 79.3757 99.6387 79.4961 99.8145 79.5547C99.9902 79.6133 100.179 79.6426 100.381 79.6426C100.531 79.6426 100.687 79.6296 100.85 79.6035C101.019 79.571 101.146 79.5449 101.23 79.5254L101.24 81C101.097 81.0456 100.908 81.0879 100.674 81.127C100.446 81.1725 100.169 81.1953 99.8438 81.1953C99.401 81.1953 98.9941 81.1074 98.623 80.9316C98.252 80.7559 97.9557 80.4629 97.7344 80.0527C97.5195 79.6361 97.4121 79.0762 97.4121 78.373V67.8652ZM107.695 81.1953C106.96 81.1953 106.292 81.0716 105.693 80.8242C105.101 80.5703 104.59 80.2155 104.16 79.7598C103.737 79.304 103.411 78.7637 103.184 78.1387C102.956 77.5137 102.842 76.8301 102.842 76.0879V75.6777C102.842 74.8184 102.969 74.0534 103.223 73.3828C103.477 72.7057 103.822 72.1328 104.258 71.6641C104.694 71.1953 105.189 70.8405 105.742 70.5996C106.296 70.3587 106.868 70.2383 107.461 70.2383C108.216 70.2383 108.867 70.3685 109.414 70.6289C109.967 70.8893 110.42 71.2539 110.771 71.7227C111.123 72.1849 111.383 72.7318 111.553 73.3633C111.722 73.9883 111.807 74.6719 111.807 75.4141V76.2246H103.916V74.75H110V74.6133C109.974 74.1445 109.876 73.6888 109.707 73.2461C109.544 72.8034 109.284 72.4388 108.926 72.1523C108.568 71.8659 108.079 71.7227 107.461 71.7227C107.051 71.7227 106.673 71.8105 106.328 71.9863C105.983 72.1556 105.687 72.4095 105.439 72.748C105.192 73.0866 105 73.5 104.863 73.9883C104.727 74.4766 104.658 75.0397 104.658 75.6777V76.0879C104.658 76.5892 104.727 77.0612 104.863 77.5039C105.007 77.9401 105.212 78.3242 105.479 78.6562C105.752 78.9883 106.081 79.2487 106.465 79.4375C106.855 79.6263 107.298 79.7207 107.793 79.7207C108.431 79.7207 108.971 79.5905 109.414 79.3301C109.857 79.0697 110.244 78.7214 110.576 78.2852L111.67 79.1543C111.442 79.4993 111.152 79.8281 110.801 80.1406C110.449 80.4531 110.016 80.707 109.502 80.9023C108.994 81.0977 108.392 81.1953 107.695 81.1953ZM115.723 72.0938V81H113.916V70.4336H115.674L115.723 72.0938ZM119.023 70.375L119.014 72.0547C118.864 72.0221 118.721 72.0026 118.584 71.9961C118.454 71.9831 118.304 71.9766 118.135 71.9766C117.718 71.9766 117.35 72.0417 117.031 72.1719C116.712 72.3021 116.442 72.4844 116.221 72.7188C115.999 72.9531 115.824 73.2331 115.693 73.5586C115.57 73.8776 115.488 74.2292 115.449 74.6133L114.941 74.9062C114.941 74.2682 115.003 73.6693 115.127 73.1094C115.257 72.5495 115.456 72.0547 115.723 71.625C115.99 71.1888 116.328 70.8503 116.738 70.6094C117.155 70.362 117.65 70.2383 118.223 70.2383C118.353 70.2383 118.503 70.2546 118.672 70.2871C118.841 70.3132 118.958 70.3424 119.023 70.375ZM128.33 79.125L131.045 70.4336H132.236L132.002 72.1621L129.238 81H128.076L128.33 79.125ZM126.504 70.4336L128.818 79.2227L128.984 81H127.764L124.697 70.4336H126.504ZM134.834 79.1543L137.041 70.4336H138.838L135.771 81H134.561L134.834 79.1543ZM132.5 70.4336L135.156 78.9785L135.459 81H134.307L131.465 72.1426L131.23 70.4336H132.5ZM142.656 70.4336V81H140.84V70.4336H142.656ZM140.703 67.6309C140.703 67.3379 140.791 67.0905 140.967 66.8887C141.149 66.6868 141.416 66.5859 141.768 66.5859C142.113 66.5859 142.376 66.6868 142.559 66.8887C142.747 67.0905 142.842 67.3379 142.842 67.6309C142.842 67.9108 142.747 68.1517 142.559 68.3535C142.376 68.5488 142.113 68.6465 141.768 68.6465C141.416 68.6465 141.149 68.5488 140.967 68.3535C140.791 68.1517 140.703 67.9108 140.703 67.6309ZM149.98 70.4336V71.8203H144.268V70.4336H149.98ZM146.201 67.8652H148.008V78.3828C148.008 78.7409 148.063 79.0111 148.174 79.1934C148.285 79.3757 148.428 79.4961 148.604 79.5547C148.779 79.6133 148.968 79.6426 149.17 79.6426C149.32 79.6426 149.476 79.6296 149.639 79.6035C149.808 79.571 149.935 79.5449 150.02 79.5254L150.029 81C149.886 81.0456 149.697 81.0879 149.463 81.127C149.235 81.1725 148.958 81.1953 148.633 81.1953C148.19 81.1953 147.783 81.1074 147.412 80.9316C147.041 80.7559 146.745 80.4629 146.523 80.0527C146.309 79.6361 146.201 79.0762 146.201 78.373V67.8652ZM153.906 66V81H152.1V66H153.906ZM153.477 75.3164L152.725 75.2871C152.731 74.5645 152.839 73.8971 153.047 73.2852C153.255 72.6667 153.548 72.1296 153.926 71.6738C154.303 71.2181 154.753 70.8665 155.273 70.6191C155.801 70.3652 156.383 70.2383 157.021 70.2383C157.542 70.2383 158.011 70.3099 158.428 70.4531C158.844 70.5898 159.199 70.8112 159.492 71.1172C159.792 71.4232 160.02 71.8203 160.176 72.3086C160.332 72.7904 160.41 73.3796 160.41 74.0762V81H158.594V74.0566C158.594 73.5033 158.512 73.0605 158.35 72.7285C158.187 72.39 157.949 72.1458 157.637 71.9961C157.324 71.8398 156.94 71.7617 156.484 71.7617C156.035 71.7617 155.625 71.8561 155.254 72.0449C154.889 72.2337 154.574 72.4941 154.307 72.8262C154.046 73.1582 153.841 73.5391 153.691 73.9688C153.548 74.3919 153.477 74.8411 153.477 75.3164ZM174.307 79.1934V73.7539C174.307 73.3372 174.222 72.9759 174.053 72.6699C173.89 72.3574 173.643 72.1165 173.311 71.9473C172.979 71.778 172.568 71.6934 172.08 71.6934C171.624 71.6934 171.224 71.7715 170.879 71.9277C170.54 72.084 170.273 72.2891 170.078 72.543C169.889 72.7969 169.795 73.0703 169.795 73.3633H167.988C167.988 72.9857 168.086 72.6113 168.281 72.2402C168.477 71.8691 168.757 71.5339 169.121 71.2344C169.492 70.9284 169.935 70.6875 170.449 70.5117C170.97 70.3294 171.549 70.2383 172.188 70.2383C172.956 70.2383 173.633 70.3685 174.219 70.6289C174.811 70.8893 175.273 71.2832 175.605 71.8105C175.944 72.3314 176.113 72.9857 176.113 73.7734V78.6953C176.113 79.0469 176.143 79.4212 176.201 79.8184C176.266 80.2155 176.361 80.5573 176.484 80.8438V81H174.6C174.508 80.7917 174.437 80.515 174.385 80.1699C174.333 79.8184 174.307 79.4928 174.307 79.1934ZM174.619 74.5938L174.639 75.8633H172.812C172.298 75.8633 171.839 75.9056 171.436 75.9902C171.032 76.0684 170.693 76.1888 170.42 76.3516C170.146 76.5143 169.938 76.7194 169.795 76.9668C169.652 77.2077 169.58 77.4909 169.58 77.8164C169.58 78.1484 169.655 78.4512 169.805 78.7246C169.954 78.998 170.179 79.2161 170.479 79.3789C170.785 79.5352 171.159 79.6133 171.602 79.6133C172.155 79.6133 172.643 79.4961 173.066 79.2617C173.49 79.0273 173.825 78.7409 174.072 78.4023C174.326 78.0638 174.463 77.735 174.482 77.416L175.254 78.2852C175.208 78.5586 175.085 78.8613 174.883 79.1934C174.681 79.5254 174.411 79.8444 174.072 80.1504C173.74 80.4499 173.343 80.7005 172.881 80.9023C172.425 81.0977 171.911 81.1953 171.338 81.1953C170.622 81.1953 169.993 81.0553 169.453 80.7754C168.919 80.4954 168.503 80.1211 168.203 79.6523C167.91 79.1771 167.764 78.6465 167.764 78.0605C167.764 77.4941 167.874 76.9961 168.096 76.5664C168.317 76.1302 168.636 75.7689 169.053 75.4824C169.469 75.1895 169.971 74.9681 170.557 74.8184C171.143 74.6686 171.797 74.5938 172.52 74.5938H174.619ZM180.918 70.4336V81H179.102V70.4336H180.918ZM178.965 67.6309C178.965 67.3379 179.053 67.0905 179.229 66.8887C179.411 66.6868 179.678 66.5859 180.029 66.5859C180.374 66.5859 180.638 66.6868 180.82 66.8887C181.009 67.0905 181.104 67.3379 181.104 67.6309C181.104 67.9108 181.009 68.1517 180.82 68.3535C180.638 68.5488 180.374 68.6465 180.029 68.6465C179.678 68.6465 179.411 68.5488 179.229 68.3535C179.053 68.1517 178.965 67.9108 178.965 67.6309Z" fill="black"/>
</svg>
